<svg width="140" height="22" viewBox="0 0 140 22" fill="none" xmlns="http://www.w3.org/2000/svg">
<path d="M0.875 17V0.242188H2.10547L9.66406 15.5586L16.7539 0.242188H17.8672V17H16.7539V2.50391L10.0977 17H9.08984L1.98828 2.38672V17H0.875ZM20.9141 13.5195C20.9141 11.0742 22.5391 9.85156 25.7891 9.85156C26.9375 9.85156 28.1641 9.92969 29.4688 10.0859V8.57422C29.4688 6.69141 28.2852 5.75 25.918 5.75C24.6523 5.75 23.3555 5.94531 22.0273 6.33594V5.28125C23.3555 4.89062 24.6523 4.69531 25.918 4.69531C29.1055 4.69531 30.6992 5.96875 30.6992 8.51562V17H29.9492L29.668 15.7812C28.1289 16.5938 26.6367 17 25.1914 17C22.3398 17 20.9141 15.8398 20.9141 13.5195ZM25.7891 10.9062C23.3594 10.9062 22.1445 11.7656 22.1445 13.4844C22.1445 15.125 23.1602 15.9453 25.1914 15.9453C26.6914 15.9453 28.1172 15.5469 29.4688 14.75V11.1406C28.1641 10.9844 26.9375 10.9062 25.7891 10.9062ZM34.4609 17V4.69531H35.3398L35.4922 6.26562C37.0625 5.21875 38.6016 4.69531 40.1094 4.69531C43.1016 4.69531 44.5977 5.98828 44.5977 8.57422V17H43.3672V8.53906C43.3672 6.71094 42.2617 5.79688 40.0508 5.79688C38.5742 5.79688 37.1211 6.31641 35.6914 7.35547V17H34.4609ZM57.2891 6.07812C56.1562 5.89062 55.043 5.79688 53.9492 5.79688C50.6289 5.79688 48.9688 7.44922 48.9688 10.7539C48.9688 14.1367 50.5195 15.8281 53.6211 15.8281C54.7461 15.8281 55.9688 15.6172 57.2891 15.1953V6.07812ZM58.5195 17C58.5195 19.9688 56.7109 21.4531 53.0938 21.4531C51.5781 21.4531 50.2344 21.2578 49.0625 20.8672V19.8125C50.2578 20.2031 51.6094 20.3984 53.1172 20.3984C55.8984 20.3984 57.2891 19.2656 57.2891 17V16.4141C55.8984 16.8047 54.6719 17 53.6094 17C49.7188 17 47.7734 14.9258 47.7734 10.7773C47.7734 6.72266 49.8633 4.69531 54.043 4.69531C55.6289 4.69531 57.1211 4.86328 58.5195 5.19922V17ZM62.9258 10.8008C62.9258 14.3086 64.4297 16.0625 67.4375 16.0625C70.4453 16.0625 71.9492 14.3086 71.9492 10.8008C71.9492 7.35547 70.4453 5.63281 67.4375 5.63281C64.4297 5.63281 62.9258 7.35547 62.9258 10.8008ZM61.6953 10.8477C61.6953 6.66797 63.6094 4.57812 67.4375 4.57812C71.2656 4.57812 73.1797 6.66797 73.1797 10.8477C73.1797 15.0195 71.2656 17.1055 67.4375 17.1055C63.625 17.1055 61.7109 15.0195 61.6953 10.8477ZM88.0625 15.9453C92.7109 15.9453 95.0352 13.3516 95.0352 8.16406C95.0352 3.58594 92.7109 1.29688 88.0625 1.29688H83.4336V15.9453H88.0625ZM82.2031 17V0.242188H88.1797C93.6484 0.242188 96.3828 2.88281 96.3828 8.16406C96.3828 14.0547 93.6094 17 88.0625 17H82.2031ZM104.387 4.69531C107.754 4.69531 109.438 6.55859 109.438 10.2852C109.438 10.5508 109.43 10.8281 109.414 11.1172H100.074C100.074 14.3359 101.777 15.9453 105.184 15.9453C106.582 15.9453 107.824 15.75 108.91 15.3594V16.4141C107.824 16.8047 106.582 17 105.184 17C100.957 17 98.8438 14.9023 98.8438 10.707C98.8438 6.69922 100.691 4.69531 104.387 4.69531ZM100.074 10.0156H108.254C108.207 7.15625 106.918 5.72656 104.387 5.72656C101.652 5.72656 100.215 7.15625 100.074 10.0156ZM111.898 13.5195C111.898 11.0742 113.523 9.85156 116.773 9.85156C117.922 9.85156 119.148 9.92969 120.453 10.0859V8.57422C120.453 6.69141 119.27 5.75 116.902 5.75C115.637 5.75 114.34 5.94531 113.012 6.33594V5.28125C114.34 4.89062 115.637 4.69531 116.902 4.69531C120.09 4.69531 121.684 5.96875 121.684 8.51562V17H120.934L120.652 15.7812C119.113 16.5938 117.621 17 116.176 17C113.324 17 111.898 15.8398 111.898 13.5195ZM116.773 10.9062C114.344 10.9062 113.129 11.7656 113.129 13.4844C113.129 15.125 114.145 15.9453 116.176 15.9453C117.676 15.9453 119.102 15.5469 120.453 14.75V11.1406C119.148 10.9844 117.922 10.9062 116.773 10.9062ZM126.91 0.242188V17H125.68V0.242188H126.91ZM130.672 16.4141V15.2422C132.039 15.7109 133.383 15.9453 134.703 15.9453C137.289 15.9453 138.582 15.125 138.582 13.4844C138.582 12.1562 137.625 11.4922 135.711 11.4922H134.141C131.562 11.4922 130.273 10.3984 130.273 8.21094C130.273 5.86719 131.98 4.69531 135.395 4.69531C136.707 4.69531 138.047 4.89062 139.414 5.28125V6.45312C138.047 5.98438 136.707 5.75 135.395 5.75C132.801 5.75 131.504 6.57031 131.504 8.21094C131.504 9.61719 132.383 10.3203 134.141 10.3203H135.711C138.445 10.3203 139.812 11.375 139.812 13.4844C139.812 15.8281 138.109 17 134.703 17C133.383 17 132.039 16.8047 130.672 16.4141Z" fill="white"/>
</svg>
